<svg xmlns="http://www.w3.org/2000/svg" width="960" height="560" viewBox="0 0 960 560" role="img" aria-labelledby="title desc">
<title id="title">Performance comparison for Fine-Tuning and Evaluation of Small LLMs</title>
<desc id="desc">Grouped bar chart comparing Gemma3-270M, Gemma3-270M-IT, and Our System on factual question answering, reasoning, and instruction following.</desc>
<rect width="100%" height="100%" fill="#ffffff"/>
<text x="90" y="42" font-family="Arial, Helvetica, sans-serif" font-size="28" font-weight="700" fill="#0f172a">Small LLM Performance Comparison</text>
<text x="90" y="68" font-family="Arial, Helvetica, sans-serif" font-size="15" fill="#475569">Our system improves factual QA and instruction following while matching the strongest reasoning baseline.</text>
<line x1="90" y1="464.0" x2="924" y2="464.0" stroke="#e2e8f0" stroke-width="1"/>
<text x="78" y="469.0" text-anchor="end" font-family="Arial, Helvetica, sans-serif" font-size="13" fill="#64748b">0%</text>
<line x1="90" y1="380.4" x2="924" y2="380.4" stroke="#e2e8f0" stroke-width="1"/>
<text x="78" y="385.4" text-anchor="end" font-family="Arial, Helvetica, sans-serif" font-size="13" fill="#64748b">10%</text>
<line x1="90" y1="296.9" x2="924" y2="296.9" stroke="#e2e8f0" stroke-width="1"/>
<text x="78" y="301.9" text-anchor="end" font-family="Arial, Helvetica, sans-serif" font-size="13" fill="#64748b">20%</text>
<line x1="90" y1="213.3" x2="924" y2="213.3" stroke="#e2e8f0" stroke-width="1"/>
<text x="78" y="218.3" text-anchor="end" font-family="Arial, Helvetica, sans-serif" font-size="13" fill="#64748b">30%</text>
<line x1="90" y1="129.8" x2="924" y2="129.8" stroke="#e2e8f0" stroke-width="1"/>
<text x="78" y="134.8" text-anchor="end" font-family="Arial, Helvetica, sans-serif" font-size="13" fill="#64748b">40%</text>
<line x1="90" y1="464" x2="924" y2="464" stroke="#94a3b8" stroke-width="1.5"/>
<line x1="90" y1="88" x2="90" y2="464" stroke="#94a3b8" stroke-width="1.5"/>
<rect x="128.0" y="427.2" width="58" height="36.8" rx="8" fill="#cbd5e1"/>
<text x="157.0" y="417.2" text-anchor="middle" font-family="Arial, Helvetica, sans-serif" font-size="13" font-weight="600" fill="#1e293b">4.4%</text>
<rect x="200.0" y="377.9" width="58" height="86.1" rx="8" fill="#94a3b8"/>
<text x="229.0" y="367.9" text-anchor="middle" font-family="Arial, Helvetica, sans-serif" font-size="13" font-weight="600" fill="#1e293b">10.3%</text>
<rect x="272.0" y="290.9" width="58" height="173.1" rx="8" fill="#2563eb"/>
<text x="301.0" y="280.9" text-anchor="middle" font-family="Arial, Helvetica, sans-serif" font-size="13" font-weight="600" fill="#1e293b">20.7%</text>
<text x="229.0" y="518" text-anchor="middle" font-family="Arial, Helvetica, sans-serif" font-size="16" font-weight="700" fill="#0f172a">Factual QA</text>
<text x="229.0" y="540" text-anchor="middle" font-family="Arial, Helvetica, sans-serif" font-size="13" fill="#64748b">Exact Match</text>
<rect x="406.0" y="352.9" width="58" height="111.1" rx="8" fill="#cbd5e1"/>
<text x="435.0" y="342.9" text-anchor="middle" font-family="Arial, Helvetica, sans-serif" font-size="13" font-weight="600" fill="#1e293b">13.3%</text>
<rect x="478.0" y="241.7" width="58" height="222.3" rx="8" fill="#94a3b8"/>
<text x="507.0" y="231.7" text-anchor="middle" font-family="Arial, Helvetica, sans-serif" font-size="13" font-weight="600" fill="#1e293b">26.6%</text>
<rect x="550.0" y="241.5" width="58" height="222.5" rx="8" fill="#2563eb"/>
<text x="579.0" y="231.5" text-anchor="middle" font-family="Arial, Helvetica, sans-serif" font-size="13" font-weight="600" fill="#1e293b">26.6%</text>
<text x="507.0" y="518" text-anchor="middle" font-family="Arial, Helvetica, sans-serif" font-size="16" font-weight="700" fill="#0f172a">Reasoning</text>
<text x="507.0" y="540" text-anchor="middle" font-family="Arial, Helvetica, sans-serif" font-size="13" fill="#64748b">Accuracy</text>
<rect x="684.0" y="174.5" width="58" height="289.5" rx="8" fill="#cbd5e1"/>
<text x="713.0" y="164.5" text-anchor="middle" font-family="Arial, Helvetica, sans-serif" font-size="13" font-weight="600" fill="#1e293b">34.6%</text>
<rect x="756.0" y="165.7" width="58" height="298.3" rx="8" fill="#94a3b8"/>
<text x="785.0" y="155.7" text-anchor="middle" font-family="Arial, Helvetica, sans-serif" font-size="13" font-weight="600" fill="#1e293b">35.7%</text>
<rect x="828.0" y="136.2" width="58" height="327.8" rx="8" fill="#2563eb"/>
<text x="857.0" y="126.2" text-anchor="middle" font-family="Arial, Helvetica, sans-serif" font-size="13" font-weight="600" fill="#1e293b">39.2%</text>
<text x="785.0" y="518" text-anchor="middle" font-family="Arial, Helvetica, sans-serif" font-size="16" font-weight="700" fill="#0f172a">Instruction Following</text>
<text x="785.0" y="540" text-anchor="middle" font-family="Arial, Helvetica, sans-serif" font-size="13" fill="#64748b">Loose Accuracy</text>
<rect x="108" y="102" width="16" height="16" rx="4" fill="#cbd5e1"/>
<text x="130" y="115" font-family="Arial, Helvetica, sans-serif" font-size="12" fill="#334155">Gemma3-270M</text>
<rect x="108" y="124" width="16" height="16" rx="4" fill="#94a3b8"/>
<text x="130" y="137" font-family="Arial, Helvetica, sans-serif" font-size="12" fill="#334155">Gemma3-270M-IT</text>
<rect x="108" y="146" width="16" height="16" rx="4" fill="#2563eb"/>
<text x="130" y="159" font-family="Arial, Helvetica, sans-serif" font-size="12" fill="#334155">Our System</text>
</svg>